<svg width="105" height="21" viewBox="0 0 105 21" fill="none" xmlns="http://www.w3.org/2000/svg">
<path d="M6.15689 18.9035C5.02253 18.9035 4.09713 18.59 3.38069 17.9631C2.67918 17.3213 2.32842 16.3959 2.32842 15.1869V9.79127H0V7.59717H2.32842V4.48515H4.79118V7.59717H7.99276V9.79127H4.79118V14.7839C4.79118 15.4705 4.94044 15.9631 5.23895 16.2616C5.53747 16.5452 6.0151 16.687 6.67183 16.687C7.20916 16.687 7.64947 16.6124 7.99276 16.4631V18.6572C7.45544 18.8214 6.84348 18.9035 6.15689 18.9035Z" fill="black"/>
<path d="M14.3172 19.0154C12.7948 19.0154 11.5112 18.4482 10.4664 17.3139C9.43649 16.1795 8.92154 14.8063 8.92154 13.1943C8.92154 11.5824 9.43649 10.2092 10.4664 9.07483C11.5112 7.94047 12.7948 7.37329 14.3172 7.37329C15.0784 7.37329 15.7799 7.54493 16.4218 7.88823C17.0636 8.21659 17.5561 8.61959 17.8994 9.09722V7.59717H20.3622V18.7915H17.8994V17.2915C17.5561 17.7691 17.0636 18.1796 16.4218 18.5229C15.7799 18.8512 15.0784 19.0154 14.3172 19.0154ZM12.3694 15.7467C12.9963 16.4332 13.7948 16.7765 14.765 16.7765C15.7352 16.7765 16.5337 16.4332 17.1606 15.7467C17.7875 15.0601 18.1009 14.2093 18.1009 13.1943C18.1009 12.1794 17.7875 11.3286 17.1606 10.642C16.5337 9.95545 15.7352 9.61216 14.765 9.61216C13.7948 9.61216 12.9963 9.95545 12.3694 10.642C11.7425 11.3286 11.4291 12.1794 11.4291 13.1943C11.4291 14.2093 11.7425 15.0601 12.3694 15.7467Z" fill="black"/>
<path d="M27.1912 19.0154C25.8629 19.0154 24.7434 18.687 23.8329 18.0303C22.9374 17.3736 22.4598 16.4929 22.4001 15.3884H24.9524C25.1315 16.4929 25.9002 17.0452 27.2584 17.0452C27.8107 17.0452 28.251 16.9482 28.5793 16.7542C28.9077 16.5452 29.0719 16.2467 29.0719 15.8586C29.0719 15.4705 28.945 15.1646 28.6913 14.9407C28.4375 14.7168 28.0122 14.5302 27.4151 14.3809L25.5793 13.8884C23.6688 13.3809 22.7135 12.254 22.7135 10.5077C22.7135 9.56738 23.0941 8.81363 23.8553 8.24645C24.6165 7.66434 25.624 7.37329 26.8778 7.37329C28.0868 7.37329 29.0794 7.67927 29.8555 8.29122C30.6316 8.90318 31.0645 9.71664 31.154 10.7316H28.6913C28.4525 9.80619 27.8405 9.34349 26.8554 9.34349C26.3629 9.34349 25.9673 9.44797 25.6688 9.65693C25.3703 9.85097 25.221 10.1271 25.221 10.4853C25.221 11.1271 25.7211 11.5749 26.7211 11.8286L28.6017 12.3212C30.5869 12.8287 31.5794 13.9556 31.5794 15.7019C31.5794 16.7616 31.169 17.5825 30.3481 18.1646C29.5421 18.7318 28.4898 19.0154 27.1912 19.0154Z" fill="black"/>
<path d="M41.4394 18.7915L36.0885 13.3958V18.7915H33.6257V2H36.0885V11.851L40.3647 7.59717H43.4767L38.4841 12.5899L44.5962 18.7915H41.4394Z" fill="black"/>
<path d="M65.5762 19.0154C63.9045 19.0154 62.5314 18.4706 61.4567 17.381C60.3821 16.2765 59.8447 14.881 59.8447 13.1944C59.8447 11.5077 60.3746 10.1196 61.4343 9.03005C62.4941 7.92555 63.8822 7.37329 65.5986 7.37329C67.33 7.37329 68.7256 7.97779 69.7853 9.18678C70.845 10.3808 71.3152 11.9182 71.1958 13.7988H62.2851C62.3149 14.6645 62.6433 15.3884 63.2702 15.9705C63.8971 16.5527 64.6956 16.8437 65.6658 16.8437C67.039 16.8437 67.9793 16.3213 68.4868 15.2765H71.0615C70.7182 16.3661 70.0614 17.2616 69.0913 17.9631C68.1211 18.6647 66.9494 19.0154 65.5762 19.0154ZM65.5315 9.43305C64.7255 9.43305 64.0314 9.6644 63.4493 10.1271C62.8821 10.5749 62.5164 11.2167 62.3523 12.0525H68.5539C68.3748 11.1868 68.0091 10.5376 67.4569 10.1047C66.9046 9.65694 66.2628 9.43305 65.5315 9.43305Z" fill="black"/>
<path d="M77.8668 19.0154C76.3443 19.0154 75.0607 18.4482 74.0159 17.3139C72.986 16.1795 72.4711 14.8063 72.4711 13.1944C72.4711 11.5824 72.986 10.2092 74.0159 9.07483C75.0607 7.94047 76.3443 7.37329 77.8668 7.37329C78.628 7.37329 79.3295 7.54494 79.9713 7.88823C80.6131 8.2166 81.1056 8.61959 81.4489 9.09722V7.59718H83.9117V18.7915H81.4489V17.2915C81.1056 17.7691 80.6131 18.1796 79.9713 18.5229C79.3295 18.8512 78.628 19.0154 77.8668 19.0154ZM75.9189 15.7467C76.5458 16.4333 77.3443 16.7765 78.3145 16.7765C79.2847 16.7765 80.0832 16.4333 80.7101 15.7467C81.337 15.0601 81.6504 14.2093 81.6504 13.1944C81.6504 12.1794 81.337 11.3286 80.7101 10.642C80.0832 9.95545 79.2847 9.61216 78.3145 9.61216C77.3443 9.61216 76.5458 9.95545 75.9189 10.642C75.2921 11.3286 74.9786 12.1794 74.9786 13.1944C74.9786 14.2093 75.2921 15.0601 75.9189 15.7467Z" fill="black"/>
<path d="M86.8004 18.7915V7.59718H89.2631V9.58977C89.4721 8.96289 89.8527 8.45541 90.4049 8.06734C90.9721 7.67927 91.5766 7.48523 92.2184 7.48523C92.6065 7.48523 92.9274 7.51509 93.1811 7.57479V10.1047C92.8229 9.97038 92.4125 9.90321 91.9498 9.90321C91.2035 9.90321 90.5691 10.2092 90.0467 10.8212C89.5243 11.4182 89.2631 12.254 89.2631 13.3287V18.7915H86.8004Z" fill="black"/>
<path d="M94.8577 18.7915V7.59718H97.3204V9.11961C98.0219 7.9554 99.1563 7.37329 100.724 7.37329C102.022 7.37329 103.059 7.79868 103.836 8.64945C104.612 9.50022 105 10.6346 105 12.0525V18.7915H102.537V12.4555C102.537 11.56 102.328 10.8659 101.91 10.3734C101.492 9.8659 100.925 9.61216 100.209 9.61216C99.3578 9.61216 98.6637 9.93307 98.1264 10.5749C97.5891 11.2167 97.3204 12.1197 97.3204 13.2839V18.7915H94.8577Z" fill="black"/>
<path fill-rule="evenodd" clip-rule="evenodd" d="M50.0348 7.59717H52.612L57.6416 18.7915H55.0644L50.0348 7.59717ZM45.6851 7.59717H48.2622L53.2918 18.7915H50.7146L45.6851 7.59717Z" fill="black"/>
</svg>
